HIERARCHY
ROOT Hips
{
	OFFSET 0.000000 0.000000 0.000000
	CHANNELS 6 Xposition Yposition Zposition Xrotation Yrotation Zrotation
	JOINT LeftUpLeg_virtual
	{
		OFFSET 0.000000 0.000000 0.000000
		CHANNELS 3 Xrotation Yrotation Zrotation
		JOINT LeftUpLeg
		{
			OFFSET 13.026900 -6.336304 -1.092800
			CHANNELS 3 Xrotation Yrotation Zrotation
			JOINT LeftLeg
			{
				OFFSET 0.524474 -46.096886 9.782700
				CHANNELS 3 Xrotation Yrotation Zrotation
				JOINT LeftFoot
				{
					OFFSET -0.524474 -53.427422 -12.948200
					CHANNELS 3 Xrotation Yrotation Zrotation
					JOINT LeftToeBase
					{
						OFFSET 0.192200 -14.009700 16.364100
						CHANNELS 3 Xrotation Yrotation Zrotation
						JOINT LeftToe_End
						{
							OFFSET -1.784700 -0.561700 9.474800
							CHANNELS 3 Xrotation Yrotation Zrotation
							End Site
							{
								OFFSET 0 0 0
							}
						}
					}
				}
			}
		}
	}
	JOINT RightUpLeg_virtual
	{
		OFFSET 0.000000 0.000000 0.000000
		CHANNELS 3 Xrotation Yrotation Zrotation
		JOINT RightUpLeg
		{
			OFFSET -12.883000 -6.336304 -1.092800
			CHANNELS 3 Xrotation Yrotation Zrotation
			JOINT RightLeg
			{
				OFFSET -0.524587 -46.096825 9.782800
				CHANNELS 3 Xrotation Yrotation Zrotation
				JOINT RightFoot
				{
					OFFSET 0.524587 -53.427383 -12.948300
					CHANNELS 3 Xrotation Yrotation Zrotation
					JOINT RightToeBase
					{
						OFFSET -0.192200 -14.009700 16.364100
						CHANNELS 3 Xrotation Yrotation Zrotation
						JOINT RightToe_End
						{
							OFFSET 1.784700 -0.561700 9.474800
							CHANNELS 3 Xrotation Yrotation Zrotation
							End Site
							{
								OFFSET 0 0 0
							}
						}
					}
				}
			}
		}
	}
	JOINT Spine_virtual
	{
		OFFSET 0.000000 0.000000 0.000000
		CHANNELS 3 Xrotation Yrotation Zrotation
		JOINT Spine
		{
			OFFSET 0.072000 7.257294 -0.789700
			CHANNELS 3 Xrotation Yrotation Zrotation
			JOINT Spine1
			{
				OFFSET 0.000000 12.508769 -0.658067
				CHANNELS 3 Xrotation Yrotation Zrotation
				JOINT Spine1_split
				{
					OFFSET 0.000000 12.508769 -0.658067
					CHANNELS 3 Xrotation Yrotation Zrotation
					JOINT Spine2
					{
						OFFSET 0.000000 12.508769 -0.658067
						CHANNELS 3 Xrotation Yrotation Zrotation
						JOINT Neck_virtual
						{
							OFFSET 0.000000 0.000000 0.000000
							CHANNELS 3 Xrotation Yrotation Zrotation
							JOINT Neck
							{
								OFFSET 0.000000 14.033295 7.520400
								CHANNELS 3 Xrotation Yrotation Zrotation
								JOINT Head
								{
									OFFSET 0.000000 8.198502 5.703100
									CHANNELS 3 Xrotation Yrotation Zrotation
									JOINT HeadTop_End
									{
										OFFSET 0.000000 17.760803 13.332701
										CHANNELS 3 Xrotation Yrotation Zrotation
										End Site
										{
											OFFSET 0 0 0
										}
									}
								}
							}
						}
						JOINT LeftShoulder_virtual
						{
							OFFSET 0.000000 0.000000 0.000000
							CHANNELS 3 Xrotation Yrotation Zrotation
							JOINT LeftShoulder
							{
								OFFSET 6.292450 5.785301 -0.669000
								CHANNELS 3 Xrotation Yrotation Zrotation
								JOINT LeftShoulder_split
								{
									OFFSET 6.292450 5.785301 -0.669000
									CHANNELS 3 Xrotation Yrotation Zrotation
									JOINT LeftArm
									{
										OFFSET 13.907140 -6.093903 1.965100
										CHANNELS 3 Xrotation Yrotation Zrotation
										JOINT LeftForeArm
										{
											OFFSET 34.140198 0.000000 0.000000
											CHANNELS 3 Xrotation Yrotation Zrotation
											JOINT LeftHand
											{
												OFFSET 40.960209 0.000000 0.000000
												CHANNELS 3 Xrotation Yrotation Zrotation
												End Site
												{
													OFFSET 0 0 0
												}
											}
										}
									}
								}
							}
						}
						JOINT RightShoulder_virtual
						{
							OFFSET 0.000000 0.000000 0.000000
							CHANNELS 3 Xrotation Yrotation Zrotation
							JOINT RightShoulder
							{
								OFFSET -6.292450 5.785301 -0.669000
								CHANNELS 3 Xrotation Yrotation Zrotation
								JOINT RightShoulder_split
								{
									OFFSET -6.292450 5.785301 -0.669000
									CHANNELS 3 Xrotation Yrotation Zrotation
									JOINT RightArm
									{
										OFFSET -13.907140 -6.093903 1.965100
										CHANNELS 3 Xrotation Yrotation Zrotation
										JOINT RightForeArm
										{
											OFFSET -34.140198 0.000000 0.000000
											CHANNELS 3 Xrotation Yrotation Zrotation
											JOINT RightHand
											{
												OFFSET -40.960209 0.000000 0.000000
												CHANNELS 3 Xrotation Yrotation Zrotation
												End Site
												{
													OFFSET 0 0 0
												}
											}
										}
									}
								}
							}
						}
					}
				}
			}
		}
	}
}
MOTION
Frames: 10
Frame Time: 0.03333333
-0.999451 98.213158 0.745869 0.000000 0.000000 0.000000 -3.848828 -48.535167 0.630089 -32.358438 10.254580 19.890054 55.282052 -4.686477 4.593345 -20.196571 -7.675148 -12.061031 -7.212839 -0.494686 -1.086888 0.000000 0.000000 0.000000 -5.382646 -45.150641 1.340479 -23.327271 -10.380518 -28.514865 51.740961 -6.919324 -8.671650 -18.405869 -5.685919 22.431813 -2.447981 0.824233 0.004642 0.000000 0.000000 0.000000 -3.275818 -47.132441 1.301272 9.626405 7.615453 -1.344034 2.390979 1.678296 -1.234293 0.132164 -1.129248 0.741444 0.000000 0.000000 0.000000 2.410640 1.354724 -0.728302 -0.538381 13.345368 4.195644 7.472234 21.605092 -5.912033 0.000000 0.000000 0.000000 3.690698 1.023869 -0.944910 1.641327 3.996390 -6.329783 -3.383907 -1.217545 -1.775981 -51.510141 3.252243 -50.124470 179.468548 -71.751807 -178.177492 0.000000 0.000000 0.000000 3.744714 1.492618 -0.569837 3.725610 11.126583 -6.244903 -1.264515 -2.096445 -0.134451 -48.326665 29.204608 86.133514 178.545735 65.046746 -178.765066 0.000000 0.000000 0.000000 
-0.775366 97.878128 0.479301 0.000000 0.000000 0.000000 -4.171832 -48.908963 0.514452 -32.997651 9.130314 19.748758 55.938006 -4.091993 4.400296 -19.251957 -7.431592 -12.179478 -6.886578 -0.370233 -1.510514 0.000000 0.000000 0.000000 -5.266792 -44.935377 1.349126 -23.363062 -10.507797 -28.612462 52.466515 -6.555981 -8.672912 -19.123481 -5.323766 22.470059 -1.693780 0.852677 -0.034089 0.000000 0.000000 0.000000 -3.674488 -47.066765 1.087550 9.883866 7.620228 -1.301533 2.534641 1.543992 -1.103968 0.578429 -1.505681 0.952215 0.000000 0.000000 0.000000 2.369513 1.222085 -0.592373 -0.339548 13.307025 3.973882 7.922482 21.521332 -5.811614 0.000000 0.000000 0.000000 3.635183 0.953075 -0.910525 1.649120 4.067205 -6.718481 -3.260072 -1.074656 -1.513157 -51.435395 3.407076 -50.221100 179.653209 -72.068058 -178.098699 0.000000 0.000000 0.000000 3.798205 1.416657 -0.533306 3.868971 11.562201 -6.224134 -1.653197 -2.657476 -0.220360 -50.032440 28.420373 86.340046 178.882586 65.173679 -179.284201 0.000000 0.000000 0.000000 
-0.613355 97.325737 0.368473 0.000000 0.000000 0.000000 -4.831151 -49.669931 0.155505 -34.346409 7.736747 19.586525 57.584498 -2.846708 4.116325 -17.594994 -7.064179 -11.894960 -6.666797 -0.280209 -1.674080 0.000000 0.000000 0.000000 -5.565021 -44.985275 0.987466 -23.657409 -10.735323 -28.616937 53.773540 -6.197496 -8.689148 -19.917255 -4.831599 22.583913 -1.860896 0.864162 0.033783 0.000000 0.000000 0.000000 -4.544332 -47.302690 0.512561 10.187635 7.622457 -1.132176 2.615463 1.358737 -0.909668 0.928148 -1.468169 1.031961 0.000000 0.000000 0.000000 2.301365 1.030031 -0.464456 -0.352173 13.213239 3.675958 8.440840 21.405895 -5.650314 0.000000 0.000000 0.000000 3.576505 0.800187 -0.818361 1.662419 4.041385 -7.311795 -2.917184 -1.055880 -1.177985 -51.501460 3.863004 -50.490480 179.986563 -73.001595 -177.902304 0.000000 0.000000 0.000000 3.784278 1.244604 -0.439209 3.923350 11.826325 -6.151822 -2.120307 -2.841606 -0.184881 -51.548373 26.808858 85.762061 179.308339 65.843283 179.973531 0.000000 0.000000 0.000000 
-0.397776 96.704048 0.218472 0.000000 0.000000 0.000000 -5.756451 -50.587827 -0.354225 -36.066756 5.998092 19.251727 59.876601 -1.584658 3.964582 -15.434011 -7.013970 -11.925089 -7.102034 -0.234851 -1.496116 0.000000 0.000000 0.000000 -6.307843 -45.424354 0.438066 -24.150485 -10.959949 -28.670006 55.287728 -5.853615 -8.760809 -20.878647 -4.242969 22.583699 -2.661781 0.852440 0.230000 0.000000 0.000000 0.000000 -5.694228 -47.947518 -0.246734 10.477539 7.659914 -0.869962 2.587088 1.211784 -0.715731 0.992660 -1.010977 0.870077 0.000000 0.000000 0.000000 2.238471 0.853592 -0.387059 -0.577320 13.065576 3.348029 8.853593 21.231418 -5.470842 0.000000 0.000000 0.000000 3.495776 0.649500 -0.655869 1.668081 3.981536 -7.920833 -2.539430 -1.284493 -0.798080 -51.631487 4.344811 -50.845209 -179.653414 -73.824687 -177.703695 0.000000 0.000000 0.000000 3.674478 1.040165 -0.320631 3.883068 11.937165 -6.138983 -2.701657 -2.543193 0.164968 -52.153713 24.943532 84.633653 179.601190 66.725983 179.324540 0.000000 0.000000 0.000000 
-0.017155 96.127678 0.144077 0.000000 0.000000 0.000000 -6.978462 -51.503697 -0.950690 -37.660157 4.039720 18.635623 62.455462 -0.925847 4.069075 -13.043165 -7.861963 -12.842790 -8.613143 -0.287424 -0.948515 0.000000 0.000000 0.000000 -7.480940 -46.219986 -0.151089 -24.770004 -11.101395 -28.874580 56.871471 -5.537057 -8.876054 -21.897520 -3.507807 22.346101 -3.238439 0.818983 0.523311 0.000000 0.000000 0.000000 -7.068252 -48.905835 -1.044031 10.741106 7.742701 -0.583534 2.485645 1.147770 -0.568613 0.702897 -0.445894 0.664869 0.000000 0.000000 0.000000 2.225100 0.765350 -0.363223 -0.926764 12.912473 3.043430 9.066369 21.056990 -5.341460 0.000000 0.000000 0.000000 3.409028 0.581843 -0.434529 1.678366 3.961391 -8.475767 -2.028560 -1.454528 -0.526937 -51.767346 4.610134 -51.204262 -179.481484 -74.123781 -177.727806 0.000000 0.000000 0.000000 3.505452 0.860162 -0.234300 3.813266 11.983991 -6.307358 -3.267178 -1.659430 0.551777 -51.709317 23.078417 83.169588 179.643087 67.449040 179.009477 0.000000 0.000000 0.000000 
0.511148 95.667801 0.212471 0.000000 0.000000 0.000000 -8.345191 -52.285477 -1.513696 -38.881033 2.101759 17.780627 65.227685 -1.083706 4.405127 -10.872931 -9.710537 -14.594221 -10.691636 -0.455366 -0.233888 0.000000 0.000000 0.000000 -8.882825 -47.379168 -0.678279 -25.554014 -11.087941 -29.346311 58.536067 -5.217403 -8.969242 -22.568866 -2.612372 22.071917 -3.393187 0.785040 0.794570 0.000000 0.000000 0.000000 -8.408432 -50.040763 -1.709304 10.953859 7.855403 -0.287277 2.390790 1.155715 -0.477943 0.310742 0.048593 0.432691 0.000000 0.000000 0.000000 2.293124 0.805825 -0.377428 -1.269438 12.803437 2.735503 9.029953 21.037416 -5.344679 0.000000 0.000000 0.000000 3.327000 0.634176 -0.187906 1.698881 3.953051 -8.951986 -1.587875 -1.663331 -0.281481 -51.783984 4.494040 -51.415475 -179.597994 -73.771821 -178.041762 0.000000 0.000000 0.000000 3.348943 0.760645 -0.210948 3.754161 12.084106 -6.729649 -3.627785 -0.534895 0.989125 -50.520252 21.771059 81.763621 179.366000 67.587980 179.144524 0.000000 0.000000 0.000000 
1.111820 95.237953 0.590153 0.000000 0.000000 0.000000 -9.620019 -53.002920 -2.035506 -39.498356 0.486224 16.969475 67.979937 -1.686220 4.723876 -9.470751 -11.985765 -16.478226 -12.288312 -0.655797 0.297004 0.000000 0.000000 0.000000 -10.371146 -48.845596 -1.228001 -26.406312 -10.850932 -30.090108 59.901305 -4.770095 -9.088981 -22.654254 -1.687414 22.346786 -3.530600 0.753367 0.914786 0.000000 0.000000 0.000000 -9.781152 -51.272826 -2.328200 11.137178 7.840372 0.005746 2.369101 1.196370 -0.462178 0.093136 0.008287 0.293009 0.000000 0.000000 0.000000 2.407036 0.936265 -0.409322 -1.481314 12.811373 2.446202 8.813648 21.212580 -5.565169 0.000000 0.000000 0.000000 3.324357 0.766392 -0.002153 1.731221 3.859328 -9.258005 -1.377319 -1.902769 -0.072358 -51.525684 4.146768 -51.282771 -179.904259 -73.055341 -178.495424 0.000000 0.000000 0.000000 3.290435 0.760837 -0.252692 3.740175 12.341928 -7.306511 -3.695769 0.267478 1.544568 -49.295074 21.178690 80.339875 179.154086 66.837335 179.343897 0.000000 0.000000 0.000000 
1.758827 94.850960 1.294662 0.000000 0.000000 0.000000 -10.806858 -53.969539 -2.678441 -39.516090 -0.488857 16.774192 70.371357 -2.195779 4.637326 -8.975702 -13.676641 -17.848070 -12.566103 -0.727950 0.336020 0.000000 0.000000 0.000000 -11.774672 -50.326073 -1.945382 -27.028507 -10.469381 -30.983026 60.499302 -4.085125 -9.323655 -22.233352 -0.726617 23.274001 -3.724560 0.739377 0.795906 0.000000 0.000000 0.000000 -11.020897 -52.489956 -2.989380 11.288978 7.586331 0.328603 2.487953 1.217277 -0.473400 0.132659 -0.306933 0.423977 0.000000 0.000000 0.000000 2.515298 1.075322 -0.406864 -1.505565 13.023198 2.197764 8.483032 21.710496 -6.030012 0.000000 0.000000 0.000000 3.422687 0.905997 0.087115 1.788857 3.722716 -9.348608 -1.264390 -1.893797 -0.100693 -51.180493 4.037361 -50.780500 179.584962 -72.485984 -179.111862 0.000000 0.000000 0.000000 3.359443 0.823240 -0.346694 3.717194 12.761748 -7.749473 -3.644477 0.516552 2.182279 -48.660822 21.435079 78.692863 179.354006 65.325862 179.198264 0.000000 0.000000 0.000000 
2.394359 94.587669 2.235954 0.000000 0.000000 0.000000 -11.831964 -55.497684 -3.611328 -39.209579 -0.812845 17.649120 71.915390 -2.153852 3.929204 -8.905632 -14.080654 -18.353545 -11.537322 -0.624857 -0.111939 0.000000 0.000000 0.000000 -12.931306 -51.590164 -2.951969 -27.179652 -9.978187 -31.883234 60.016005 -3.177668 -9.615813 -21.564424 0.192950 24.385790 -3.553573 0.780726 0.503647 0.000000 0.000000 0.000000 -11.837104 -53.490333 -3.751692 11.307062 6.947849 0.761875 2.684058 1.166654 -0.489038 0.439836 -0.602147 0.619562 0.000000 0.000000 0.000000 2.534749 1.104214 -0.350001 -1.339151 13.432449 2.053992 8.213138 22.477224 -6.737142 0.000000 0.000000 0.000000 3.541913 0.952996 0.070807 1.842290 3.509706 -9.182879 -1.174027 -1.629548 -0.288232 -51.114407 4.572020 -49.884048 179.127667 -72.339012 -179.600794 0.000000 0.000000 0.000000 3.491083 0.866198 -0.431867 3.593599 13.153408 -7.795963 -3.634284 0.215791 2.752306 -48.697282 22.827896 76.902145 179.854112 63.395384 178.746911 0.000000 0.000000 0.000000 
2.892302 94.526085 3.630871 0.000000 0.000000 0.000000 -12.806115 -57.124813 -5.004442 -38.502326 -0.455902 19.641112 72.174090 -1.290448 2.651552 -9.126910 -13.025067 -17.571042 -9.887438 -0.448896 -0.793200 0.000000 0.000000 0.000000 -13.708991 -52.528273 -4.236033 -26.944835 -9.452149 -32.605503 58.391957 -2.174701 -9.845097 -20.594678 0.921771 25.286860 -2.960070 0.873194 0.200737 0.000000 0.000000 0.000000 -12.244594 -54.176589 -4.731257 11.096421 5.832962 1.261550 2.822896 0.968059 -0.475361 0.797446 -1.067386 0.939616 0.000000 0.000000 0.000000 2.431058 0.919263 -0.222683 -1.197569 14.050577 2.140371 8.085764 23.310877 -7.568762 0.000000 0.000000 0.000000 3.602067 0.823772 0.011271 1.851666 3.268104 -8.698671 -0.972895 -0.911801 -0.465011 -51.704877 5.782194 -48.676562 178.838299 -72.536466 -179.888099 0.000000 0.000000 0.000000 3.556547 0.759603 -0.460190 3.278526 13.155584 -7.169252 -3.572463 -0.211060 3.060996 -48.981513 24.923828 75.011029 -179.453371 61.598901 178.079410 0.000000 0.000000 0.000000 
